# xmcd
#
# Track frame offsets:
#	150
#	12923
#	24672
#	38407
#	49797
#	63362
#	77437
#	89763
#	102678
#	115390
#	128063
#	140385
#	152353
#	165884
#	178264
#	191831
#	205105
#	217364
#
# Disc length: 3059 seconds
#
# Revision: 1
# Processed by: cddbd v1.5.2PL0 Copyright (c) Steve Scherf et al.
# Submitted via: audiograbber 1.83.01
#
DISCID=f70bf112
DTITLE=Various Artist - Country Legends
DYEAR=2003
DGENRE=Country
TTITLE0=Have I Told You Lately That I Love You - Sons Of Pioneers
TTITLE1=Just To Ease My Worried Mind - Roy Acaff
TTITLE2=Blue Jodel Nr. 4 - Jimmy Rogers
TTITLE3=Orange Blossom Special - Bill Monroe and His Bluegrass Boys
TTITLE4=Decorce Me C.O.D. - Merle Travis
TTITLE5=Answer To Sleeping Willow - The Carter Family
TTITLE6=I`ll Tell The World That I Love You - Hank Snow
TTITLE7=Walking The Floor Over You - Ernest Tubb
TTITLE8=I´ve Hung Up My Chaps And Saddle - Wilf Carter
TTITLE9=I´m Waisting My Tears On You - Tex Ritter
TTITLE10=Deep In The Heart Of Texas - Gene Autry
TTITLE11=Take Me Back To Tulsa - Bob Wills and His Texas Play Boys
TTITLE12=Just Because - Shelton Brothers
TTITLE13=Wreck On The Highway - Roy Acuff and His Smokey Mountain Boys
TTITLE14=Plant Some Flowers By My Graveside - Wilf Carter
TTITLE15=Daddy And Home - Jimmy Rogers
TTITLE16=It Make No Difference Now - Gene Autry
TTITLE17=No Letter In The Mail - Bill Monroe and His Bluegrass Boys
EXTD=
EXTT0=
EXTT1=
EXTT2=
EXTT3=
EXTT4=
EXTT5=
EXTT6=
EXTT7=
EXTT8=
EXTT9=
EXTT10=
EXTT11=
EXTT12=
EXTT13=
EXTT14=
EXTT15=
EXTT16=
EXTT17=
PLAYORDER=
